<svg id="Capa_1" enable-background="new 0 0 512 512" height="512" viewBox="0 0 512 512" width="512" xmlns="http://www.w3.org/2000/svg"><g><path d="m467 181c-2.73 0-27.477 0-30 0-38.789 0-58.598-18.823-80.395-40.605-23.144-23.16-49.394-49.395-100.605-49.395s-77.461 26.235-100.605 49.395c-21.797 21.782-41.606 40.605-80.395 40.605-2.73 0-27.477 0-30 0-24.814 0-45 20.186-45 45 0 71.818 57.536 130.161 130.219 134.225 29.043 34.413 69.397 60.775 125.781 60.775 56.268 0 96.57-26.255 125.601-60.566 71.8-3.01 130.399-61.908 130.399-134.434 0-24.814-20.186-45-45-45zm-437 45c0-8.276 6.724-15 15-15h17.43c4.497 22.588 17.595 70.626 43.733 115.155-43.303-12.953-76.163-52.7-76.163-100.155zm181-45.05 90 .05v30h-90zm90 150.05h-90v-30h90zm60-60h-210v-30h210zm44.837 55.155c26.138-44.529 39.236-92.567 43.733-115.155h17.43c8.276 0 15 6.724 15 15 0 47.455-32.86 87.202-76.163 100.155z"/></g></svg>